<svg width="27" height="27" viewBox="0 0 27 27" fill="none" xmlns="http://www.w3.org/2000/svg">
<path d="M13.5 27C15.3441 27 17.0779 26.6471 18.7015 25.9412C20.3338 25.2353 21.7721 24.2603 23.0162 23.0162C24.2603 21.7721 25.2353 20.3382 25.9412 18.7147C26.6471 17.0824 27 15.3441 27 13.5C27 11.6559 26.6471 9.92206 25.9412 8.29853C25.2353 6.66618 24.2603 5.22794 23.0162 3.98382C21.7721 2.73971 20.3338 1.76471 18.7015 1.05882C17.0691 0.352941 15.3309 0 13.4868 0C11.6426 0 9.90441 0.352941 8.27206 1.05882C6.64853 1.76471 5.21471 2.73971 3.97059 3.98382C2.73529 5.22794 1.76471 6.66618 1.05882 8.29853C0.352941 9.92206 0 11.6559 0 13.5C0 15.3441 0.352941 17.0824 1.05882 18.7147C1.76471 20.3382 2.73971 21.7721 3.98382 23.0162C5.22794 24.2603 6.66176 25.2353 8.28529 25.9412C9.91765 26.6471 11.6559 27 13.5 27ZM13.5265 20.3162C13.2265 20.3162 12.9794 20.2235 12.7853 20.0382C12.5912 19.8441 12.4941 19.5926 12.4941 19.2838V12.4941L12.6 9.59559L11.2368 11.2368L9.62206 12.8647C9.41912 13.0676 9.17647 13.1691 8.89412 13.1691C8.61176 13.1691 8.37353 13.0765 8.17941 12.8912C7.99412 12.6971 7.90147 12.4588 7.90147 12.1765C7.90147 11.8853 7.99412 11.6471 8.17941 11.4618L12.7324 6.93529C12.9882 6.67059 13.2529 6.53824 13.5265 6.53824C13.8 6.53824 14.0647 6.67059 14.3206 6.93529L18.8735 11.4618C19.0588 11.6559 19.1515 11.8941 19.1515 12.1765C19.1515 12.4588 19.0544 12.6971 18.8603 12.8912C18.6662 13.0765 18.4279 13.1691 18.1456 13.1691C17.8456 13.1691 17.6029 13.0676 17.4176 12.8647L15.8162 11.2368L14.4397 9.58235L14.5456 12.4941V19.2838C14.5456 19.5926 14.4485 19.8441 14.2544 20.0382C14.0691 20.2235 13.8265 20.3162 13.5265 20.3162Z" fill="#00B1B1"/>
</svg>
