<svg width="19" height="20" viewBox="0 0 19 20" fill="none" xmlns="http://www.w3.org/2000/svg">
<path d="M10.2649 19L12.2709 18.7202L13.9122 18.4403L15.4623 17.6941L16.4653 16.9478C17.5596 15.7352 17.2176 13.7696 16.4653 13C15.9859 12.5095 17.0124 14.3593 17.0124 8.45928C16.5565 5.9407 16.3742 5.9407 17.7419 4.72805C18.2315 3.39665 18.0269 2.39603 16.7389 1.36994C16.7389 1.36994 14.6417 0.122304 13.3879 2.20947C10.8393 1.53044 7.98077 1.53044 5.43215 2.20947C4.15558 0.34385 2.14954 1.5565 2.14954 1.5565C0.985901 3 0.751251 3.39665 1.24081 4.72805C2.79092 6.12726 1.87752 6.36682 1.87599 7.89959C1.87599 10.2316 1.3917 9.54861 2.4859 13C1.24081 13.5 1.56825 15.0822 1.69363 16.1083L2.42309 16.9478L3.88203 17.9739L5.43215 18.4403L6.89109 18.7202L8.71476 19H10.2649Z" stroke="#9C9C9C" stroke-width="2" stroke-linecap="round" stroke-linejoin="round"/>
<path d="M2 12C5.83093 14.9796 10.749 14.3355 12.1267 14.0781C12.3783 14.0311 12.6215 13.9595 12.8643 13.8786L12.9586 13.8471C13.6508 13.6164 14.3156 13.3106 14.9413 12.9352L16.5 12" stroke="#9C9C9C" stroke-width="2"/>
</svg>
