<svg width="26" height="26" viewBox="0 0 26 26" fill="none" xmlns="http://www.w3.org/2000/svg">
<path fill-rule="evenodd" clip-rule="evenodd" d="M20.559 7.5908C19.0662 6.13645 16.6346 6.13645 15.1418 7.5908L13 9.67751L10.8582 7.5908C9.36546 6.13645 6.93383 6.13645 5.44107 7.5908C3.96411 9.02976 3.96411 11.3508 5.44107 12.7897L13 20.1542L20.559 12.7897C22.0359 11.3508 22.0359 9.02976 20.559 7.5908ZM13.6299 6.0389C15.9639 3.76486 19.7369 3.76486 22.0709 6.0389C24.4208 8.32833 24.4208 12.0522 22.0709 14.3416L13.756 22.4427C13.3353 22.8525 12.6647 22.8525 12.244 22.4427L3.9291 14.3416C1.57922 12.0522 1.57922 8.32833 3.9291 6.0389C6.26319 3.76486 10.0361 3.76486 12.3702 6.0389L13 6.65254L13.6299 6.0389Z" fill="#9C9C9C"/>
</svg>
